<svg width="1440" height="1024" viewBox="0 0 1440 1024" fill="none" xmlns="http://www.w3.org/2000/svg">
<g clip-path="url(#clip0_1_35)">
<path d="M614.849 364.994C702.397 402.346 751.137 534.398 717.121 602.716C679.54 678.161 437.947 670.101 409.992 652.214C382.036 634.329 607.719 572.762 575.865 504.258C540.49 428.219 368.135 430.484 372.378 397.749C376.548 365.541 513.651 321.824 614.849 364.994Z" stroke="#4A3AFF" stroke-opacity="0.08" stroke-width="1.32323" stroke-miterlimit="10"/>
<path d="M641.962 355.192C744.42 387.383 790.884 547.395 746.963 623.684C697.184 710.091 434.443 681.93 395.321 668.901C361.597 657.689 578.401 576.085 551.205 493.151C521.689 403.046 366.037 390.486 377.36 369.33C389.535 346.652 521.734 317.511 641.962 355.192Z" stroke="#4A3AFF" stroke-opacity="0.08" stroke-width="1.32323" stroke-miterlimit="10"/>
<path d="M669.073 345.413C786.278 372.341 830.547 560.377 776.804 644.633C714.719 742.087 433.027 693.459 380.65 685.611C342.574 679.834 548.892 579.516 526.573 482.002C502.751 378.002 360.423 349.361 382.344 341.06C398.592 326.66 529.383 313.293 669.073 345.413Z" stroke="#4A3AFF" stroke-opacity="0.08" stroke-width="1.32323" stroke-miterlimit="10"/>
<path d="M696.186 335.547C828.058 357.424 870.132 573.272 806.565 665.537C732.066 773.831 428.102 720.198 365.899 702.258C326.937 691.011 519.193 582.906 501.858 470.877C483.603 352.981 356.499 308.781 387.247 312.704C409.618 307.21 537.062 309.196 696.186 335.547Z" stroke="#4A3AFF" stroke-opacity="0.08" stroke-width="1.32323" stroke-miterlimit="10"/>
<path d="M723.304 325.808C869.786 342.696 909.663 586.253 836.491 686.568C749.55 805.783 430.043 732.854 351.313 719.006C307.134 711.212 489.582 586.441 477.285 459.834C464.616 328.042 349.886 273.613 392.318 284.433C419.495 291.345 544.688 305.207 723.304 325.808Z" stroke="#4A3AFF" stroke-opacity="0.08" stroke-width="1.32323" stroke-miterlimit="10"/>
<path d="M750.385 316.007C911.511 328.008 949.162 599.191 866.332 707.515C766.866 837.634 431.18 723.03 336.615 735.798C287.61 742.373 459.773 590.002 452.623 448.79C445.193 303.151 345.157 232.055 397.299 256.203C429.744 271.129 552.286 301.28 750.385 316.007Z" stroke="#4A3AFF" stroke-opacity="0.08" stroke-width="1.32323" stroke-miterlimit="10"/>
<path d="M777.496 306.228C953.237 313.345 988.634 612.027 896.199 728.482C784.152 869.465 430.132 731.697 321.968 752.401C269.05 762.535 429.994 593.415 428.016 437.598C425.986 278.027 341.304 190.571 402.307 227.784C440.567 251.136 559.884 297.395 777.496 306.228Z" stroke="#4A3AFF" stroke-opacity="0.08" stroke-width="1.32323" stroke-miterlimit="10"/>
<path d="M804.613 296.424C994.973 298.721 1028.03 624.987 926.047 749.449C801.503 901.293 428.786 740.053 307.305 769.108C250.337 782.721 400.139 596.849 403.362 426.492C406.649 253.07 337.674 149.418 407.297 199.469C451.591 231.286 567.542 293.574 804.613 296.424Z" stroke="#4A3AFF" stroke-opacity="0.08" stroke-width="1.32323" stroke-miterlimit="10"/>
<path d="M831.723 286.623C1036.7 284.12 1067.56 637.883 955.888 770.416C818.793 933.121 427.187 748.285 292.631 785.835C231.48 802.909 370.252 600.346 378.728 415.408C387.305 228.094 334.097 108.454 412.277 171.154C462.716 211.559 575.116 289.774 831.723 286.623Z" stroke="#4A3AFF" stroke-opacity="0.08" stroke-width="1.32323" stroke-miterlimit="10"/>
<path d="M858.837 276.841C1078.56 269.621 1107.01 650.76 985.73 791.364C836.137 964.909 425.37 756.29 277.964 802.503C212.516 823.016 340.365 603.781 354.096 404.281C367.939 203.076 330.47 67.5325 417.289 142.8C473.871 191.898 582.745 286.015 858.837 276.841Z" stroke="#4A3AFF" stroke-opacity="0.08" stroke-width="1.32323" stroke-miterlimit="10"/>
<path d="M885.951 267.04C1120.21 254.979 1146.51 663.637 1015.57 812.334C853.321 996.719 423.281 764.279 263.293 819.21C193.469 843.143 310.423 607.238 329.436 393.175C348.543 178.058 326.95 26.7135 422.272 114.485C485.052 172.277 590.4 282.276 885.951 267.04Z" stroke="#4A3AFF" stroke-opacity="0.08" stroke-width="1.32323" stroke-miterlimit="10"/>
<path d="M913.064 257.239C1161.97 240.419 1185.85 676.514 1045.42 833.301C870.556 1028.51 421.303 772.202 248.625 835.853C174.396 863.249 280.511 610.713 304.804 382.004C329.148 152.998 323.375 -14.1245 427.258 86.1083C496.211 152.676 598.058 278.536 913.064 257.239Z" stroke="#4A3AFF" stroke-opacity="0.08" stroke-width="1.32323" stroke-miterlimit="10"/>
<path d="M940.175 247.457C1203.75 225.879 1225.27 689.476 1075.25 854.248C887.79 1060.29 419.1 780.108 233.923 852.606C155.211 883.422 250.539 614.129 280.141 370.94C309.746 127.75 319.802 -54.8363 432.238 57.7739C507.389 133.097 605.711 274.842 940.175 247.457Z" stroke="#4A3AFF" stroke-opacity="0.08" stroke-width="1.32323" stroke-miterlimit="10"/>
<path d="M967.285 237.656C1245.53 211.339 1264.68 702.247 1105.12 875.215C905.026 1092.17 416.796 788.077 219.282 869.312C136.03 903.572 220.598 617.564 255.51 359.833C290.325 103.006 316.2 -95.5482 437.251 29.5034C518.574 113.541 613.366 271.122 967.285 237.656Z" stroke="#4A3AFF" stroke-opacity="0.08" stroke-width="1.32323" stroke-miterlimit="10"/>
<path d="M994.405 227.855C1287.32 196.799 1303.67 714.881 1134.89 896.183C921.637 1123.56 414.329 795.838 204.534 886.001C116.743 923.727 190.553 621.001 230.801 348.727C270.827 77.9918 312.524 -136.28 442.157 1.16996C529.763 93.9814 621.083 267.447 994.405 227.855Z" stroke="#4A3AFF" stroke-opacity="0.08" stroke-width="1.32323" stroke-miterlimit="10"/>
<path d="M1021.51 218.073C1329.1 182.282 1343.12 727.756 1164.81 917.11C939.007 1155.41 412.014 803.557 189.943 902.665C97.5572 943.835 160.662 624.396 206.246 337.538C251.453 52.8671 309.002 -177.055 447.22 -27.2507C540.944 74.4247 628.761 263.752 1021.51 218.073Z" stroke="#4A3AFF" stroke-opacity="0.08" stroke-width="1.32323" stroke-miterlimit="10"/>
<path d="M1048.63 208.272C1371.02 167.762 1382.59 740.653 1194.65 938.097C956.295 1187.08 409.576 811.529 175.273 919.392C78.1875 964.05 130.04 627.819 181.615 326.493C231.381 27.8586 305.404 -217.684 452.204 -55.4806C552.127 54.8878 636.475 260.074 1048.63 208.272Z" stroke="#4A3AFF" stroke-opacity="0.08" stroke-width="1.32323" stroke-miterlimit="10"/>
<path d="M1075.74 198.47C1412.81 153.706 1422.06 753.552 1224.49 959.067C973.586 1219.01 407.074 819.374 160.574 936.102C59.0026 984.203 100.207 631.253 156.955 315.387C212.063 2.84237 301.806 -258.353 457.213 -83.8152C563.309 35.351 644.299 256.987 1075.74 198.47Z" stroke="#4A3AFF" stroke-opacity="0.08" stroke-width="1.32323" stroke-miterlimit="10"/>
<path d="M1102.85 188.689C1454.6 139.081 1461.49 766.427 1254.34 980.034C990.908 1250.82 404.556 827.2 145.91 952.81C39.7191 1004.37 70.3507 634.645 132.327 304.28C192.754 -22.1773 298.182 -299.043 462.203 -112.129C574.582 15.9171 651.988 253.183 1102.85 188.689Z" stroke="#4A3AFF" stroke-opacity="0.08" stroke-width="1.32323" stroke-miterlimit="10"/>
<path d="M1129.97 178.887C1496.38 124.457 1500.99 779.324 1284.18 1000.98C1008.2 1282.56 401.975 835.05 131.24 969.497C20.4001 1024.55 40.3551 638.146 107.693 293.238C173.578 -47.1347 295.014 -339.887 467.187 -140.401C586.004 -3.87359 659.668 249.361 1129.97 178.887Z" stroke="#4A3AFF" stroke-opacity="0.08" stroke-width="1.32323" stroke-miterlimit="10"/>
<path d="M1157.08 169.086C1538.16 109.771 1540.54 792.242 1314.02 1021.95C1025.48 1314.43 399.393 842.896 116.565 986.12C1.05112 1044.66 10.6265 641.494 83.0311 281.985C154.123 -72.2357 291.17 -380.49 472.166 -168.799C597.024 -23.304 667.294 245.645 1157.08 169.086Z" stroke="#4A3AFF" stroke-opacity="0.08" stroke-width="1.32323" stroke-miterlimit="10"/>
<path d="M477.179 -197.113C608.048 -42.7551 675.059 241.735 1184.19 159.305C1579.97 95.2106 1579.94 805.098 1343.89 1042.91C1042.78 1346.26 396.814 850.743 101.899 1002.89C-136.589 1125.95 94.4737 -648.541 477.179 -197.113Z" stroke="#4A3AFF" stroke-opacity="0.08" stroke-width="1.32323" stroke-miterlimit="10"/>
</g>
<defs>
<clipPath id="clip0_1_35">
<rect width="1484.02" height="1424.2" fill="white" transform="matrix(-0.998785 -0.0492702 -0.0492702 0.998785 1537.19 -239.175)"/>
</clipPath>
</defs>
</svg>
